<?xml version="1.0" encoding="UTF-8"?> <svg xmlns="http://www.w3.org/2000/svg" width="466" height="167" viewBox="0 0 466 167" fill="none"> <path fill-rule="evenodd" clip-rule="evenodd" d="M174.165 1.17847C173.34 1.49547 171.126 2.92249 169.244 4.34949C166.117 6.72149 164.96 6.9525 155.744 7.0525C144.93 7.1685 134.901 6.27748 131.665 4.91248C129.933 4.18148 129.836 4.28048 130.945 5.64548C132.488 7.54448 139.546 9.44349 145.061 9.44349C147.266 9.44349 150.174 9.94649 151.523 10.5605C153.919 11.6525 153.983 11.9845 154.375 25.3105C154.596 32.8085 154.406 39.3795 153.953 39.9115C153.437 40.5185 151.88 40.2065 149.781 39.0755C146.533 37.3265 146.287 37.3315 141.549 39.2535C138.863 40.3425 132.84 42.6725 128.165 44.4315C123.49 46.1905 118.388 48.2655 116.826 49.0415C115.265 49.8175 113.578 50.1985 113.076 49.8885C112.575 49.5785 112.165 49.8025 112.165 50.3845C112.165 50.9665 111.828 51.3845 111.415 51.3135C111.002 51.2415 109.203 51.7895 107.415 52.5325L104.165 53.8815L104.107 77.9125C104.076 91.1295 103.818 110.719 103.535 121.444C103.075 138.901 102.819 141.16 101.093 143.008C100.033 144.144 99.1651 145.39 99.1651 145.78C99.1651 146.708 115.644 157.443 117.068 157.443C117.672 157.443 118.165 157.856 118.165 158.36C118.165 158.865 120.095 160.016 122.454 160.917C127.474 162.834 128.16 162.644 140.1 156.04C151.775 149.582 152.165 149.678 152.165 159.011C152.165 166.394 152.22 166.562 154.415 165.899C157.662 164.919 164.89 161.219 170.665 157.581C173.415 155.849 176.981 153.647 178.59 152.688C182.858 150.143 188.759 144.703 188.035 143.98C187.693 143.638 185.758 144.147 183.735 145.112C180.979 146.426 179.632 146.596 178.361 145.793C176.578 144.667 176.377 128.531 176.977 34.5535L177.165 5.16349L182.896 5.7555C189.16 6.4015 188.86 5.75349 181.332 2.38349C176.727 0.32149 176.495 0.282473 174.165 1.17847ZM370.165 19.9435C369.48 20.7685 368.519 21.4435 368.028 21.4435C366.796 21.4435 361.23 27.6795 361.194 29.1005C361.178 29.7365 363.433 32.1565 366.205 34.4765C376.585 43.1675 376.856 49.5085 367.284 59.6935C362.016 65.2985 365.365 64.3925 376.952 57.0785C384.252 52.4695 389.448 43.8485 389.347 36.5135C389.212 26.7455 374.83 14.3225 370.165 19.9435ZM421.464 35.5495C419.704 36.0585 417.99 36.9185 417.655 37.4595C417.321 38.0005 416.407 38.4435 415.625 38.4435C414.843 38.4435 410.361 40.2435 405.665 42.4435C400.969 44.6435 396.901 46.4435 396.626 46.4435C396.351 46.4435 394.334 47.5745 392.145 48.9565L388.165 51.4685L388.141 69.2065C388.128 78.9615 387.654 88.7435 387.088 90.9435C386.522 93.1435 385.97 95.6035 385.862 96.4115C385.749 97.2525 389.184 100.233 393.915 103.397C399.769 107.313 402.154 109.5 402.127 110.93C402.106 112.038 399.606 115.644 396.572 118.944C385.273 131.233 376.374 149.68 377.647 158.175C378.655 164.891 380.873 163.685 381.699 155.972C382.093 152.295 383.019 148.98 383.843 148.295C385.359 147.037 385.451 147.063 403.665 153.962C407.515 155.42 413.508 157.526 416.982 158.642L423.299 160.672L434.115 156.055C454.134 147.508 459.879 144.632 460.627 142.784C461.037 141.772 461.308 133.398 461.23 124.175C461.106 109.475 461.331 106.857 463.056 102.956L465.025 98.5065L452.71 92.4655C445.936 89.1425 439.857 85.7775 439.201 84.9865C437.755 83.2445 438.318 82.1795 444.051 75.8135C452.634 66.2825 465.213 44.9485 463.697 42.4945C462.51 40.5745 461.567 41.3895 457.388 47.9435C454.78 52.0355 452.581 54.4325 451.455 54.4155C450.47 54.3995 447.64 52.5545 445.165 50.3145C433.567 39.8185 427.011 34.4515 425.889 34.5335C425.216 34.5835 423.225 35.0405 421.464 35.5495ZM31.1651 40.5355C26.4901 42.7965 19.2901 45.9845 15.1651 47.6195C11.0401 49.2545 7.27111 50.9755 6.78911 51.4445C5.94911 52.2605 5.76112 60.4545 5.35012 114.116L5.16512 138.29L2.08813 141.366C-0.0798743 143.534 -0.522874 144.443 0.588126 144.443C1.45513 144.443 2.16512 144.793 2.16512 145.22C2.16512 145.648 5.20212 147.294 8.91512 148.879C12.6281 150.463 18.3651 152.979 21.6651 154.469C34.4621 160.243 41.2601 162.549 43.4461 161.855C44.6461 161.474 50.8111 158.616 57.1471 155.503C63.4821 152.39 70.5931 149.075 72.9481 148.137C75.3041 147.2 77.4091 145.872 77.6261 145.188C77.8421 144.503 78.2191 124.692 78.4641 101.163C78.8801 61.1755 79.0301 58.2495 80.7741 56.3235C82.5961 54.3105 82.5931 54.2285 80.6521 52.7545C79.5591 51.9255 77.4271 50.7965 75.9151 50.2475C74.4031 49.6975 73.1651 48.8415 73.1651 48.3455C73.1651 47.8495 72.4841 47.4435 71.6511 47.4435C70.8191 47.4435 69.3561 47.0315 68.4011 46.5275C67.4461 46.0235 65.0901 44.9415 63.1651 44.1225C42.2421 35.2235 42.1681 35.2145 31.1651 40.5355ZM331.855 38.8955C331.057 39.6945 330.125 40.0695 329.784 39.7295C329.444 39.3885 329.165 39.6355 329.165 40.2765C329.165 40.9185 328.474 41.4435 327.63 41.4435C326.785 41.4435 322.697 43.2435 318.545 45.4435C314.392 47.6435 310.014 49.4435 308.816 49.4435C307.617 49.4435 303.943 47.2765 300.651 44.6275C297.358 41.9785 293.831 39.4995 292.811 39.1185C290.683 38.3245 282.935 43.5515 278.594 48.7095L275.934 51.8725L279.502 54.9075C283.551 58.3525 284.596 60.6415 285.683 68.4435C286.43 73.8065 286.545 137.245 285.835 152.693L285.48 160.443H296.854H308.229L308.164 136.693C307.948 58.2115 307.988 56.6205 310.258 54.3505C313.688 50.9205 322.751 52.7005 329.114 58.0535C336.166 63.9875 336.119 63.6025 336.143 115.194C336.162 154.337 336.382 161.443 337.576 161.443C341.178 161.443 367.165 149.042 367.165 147.323C367.165 146.674 366.453 146.522 365.415 146.949C361.491 148.565 359.917 148.662 359.078 147.337C358.593 146.571 358.189 126.393 358.18 102.498L358.165 59.0525L360.76 56.3445L363.354 53.6365L356.51 49.2475C352.745 46.8335 348.54 44.3105 347.165 43.6405C345.79 42.9705 343.315 41.5865 341.665 40.5655C340.015 39.5445 338.359 38.8825 337.984 39.0925C337.61 39.3035 337.021 39.0185 336.675 38.4595C335.776 37.0045 333.545 37.2065 331.855 38.8955ZM232.542 39.4665C231.979 40.0295 230.639 40.6595 229.565 40.8665C228.49 41.0735 224.698 42.6705 221.138 44.4155C217.578 46.1615 212.19 48.5165 209.165 49.6495C206.14 50.7825 203.12 52.1405 202.454 52.6665C201.548 53.3825 201.171 64.6465 200.954 97.4985C200.693 137.113 200.501 141.538 198.976 143.063C197.39 144.648 197.42 144.853 199.476 146.412C200.68 147.325 203.24 148.795 205.165 149.678C207.09 150.561 212.598 153.104 217.405 155.331C222.213 157.558 228.36 160.332 231.066 161.496L235.987 163.613L250.326 156.603C258.212 152.748 265.79 148.662 267.165 147.522L269.665 145.451L262.665 146.016C256.87 146.484 250.571 145.817 244.665 144.11C239.872 142.725 238.024 142.059 233.665 140.146C227.723 137.537 226.524 136.506 225.085 132.769C223.775 129.365 222.641 112.648 223.494 109.318C223.829 108.012 225.132 105.819 226.391 104.444C227.649 103.069 231.123 98.7935 234.11 94.9435C237.096 91.0935 243.618 82.9905 248.603 76.9365C260.67 62.2805 269.165 50.9795 269.165 49.5815C269.165 47.7745 266.768 48.2585 264.897 50.4435C262.859 52.8245 260.87 52.9975 259.165 50.9435C258.48 50.1185 257.454 49.4435 256.883 49.4435C256.313 49.4435 253.553 47.7115 250.75 45.5955C241.826 38.8575 235.335 36.6735 232.542 39.4665ZM426.755 62.1975C432.354 68.3875 437.173 74.3675 437.466 75.4855C437.866 77.0165 436.353 79.1815 431.331 84.2605C422.944 92.7435 419.529 94.7435 416.346 93.0405C415.08 92.3625 413.175 90.4885 412.111 88.8765C410.391 86.2665 410.177 84.0615 410.172 68.8605C410.168 59.4645 410.486 51.4565 410.878 51.0645C413.182 48.7605 417.065 51.4835 426.755 62.1975ZM141.033 54.7925C144.536 56.6295 148.938 59.3585 150.816 60.8565L154.23 63.5805L153.948 103.409C153.678 141.465 153.577 143.333 151.688 145.42C150.211 147.051 148.994 147.459 146.877 147.035C143.194 146.299 134.681 140.607 129.87 135.665L126.076 131.767L126.141 93.4115C126.199 59.3805 126.391 54.8515 127.841 53.2495C130.232 50.6065 133.862 51.0315 141.033 54.7925ZM232.768 56.7195C239.414 63.8805 246.165 72.4715 246.165 73.7705C246.165 74.9965 241.556 81.9885 238.799 84.9435C237.773 86.0435 234.456 90.2065 231.428 94.1935C228.4 98.1805 225.296 101.444 224.531 101.444C223.367 101.444 223.217 97.5685 223.616 77.8385C224.069 55.4455 224.604 51.4435 227.14 51.4435C227.542 51.4435 230.074 53.8175 232.768 56.7195ZM41.4441 56.5765C44.8651 58.2995 49.5901 61.0295 51.9421 62.6425L56.2191 65.5765L56.1411 101.261C56.0981 120.886 55.8111 138.405 55.5031 140.193C55.0231 142.978 54.5301 143.443 52.0611 143.443C48.2381 143.443 31.8171 136.821 29.6211 134.394C28.0341 132.641 27.9051 129.275 28.0881 94.2415C28.2191 69.0265 28.6481 55.5655 29.3481 54.7225C31.0621 52.6585 34.8001 53.2315 41.4441 56.5765ZM431.613 104.837C436.979 108.929 438.665 114.745 438.665 129.159C438.665 143.869 437.858 145.478 431.518 143.41C423.454 140.781 399.224 128.206 398.633 126.344C397.836 123.832 401.518 119.165 412.083 109.301C420.229 101.694 420.857 101.313 424.452 101.775C426.536 102.043 429.758 103.422 431.613 104.837Z" fill="#D7262C"></path> </svg> 